<svg xmlns="http://www.w3.org/2000/svg" xmlns:xlink="http://www.w3.org/1999/xlink" width="42" height="42" viewBox="0 0 42 42" version="1.1" class="w-16 md:w-24">
  <path d="M32.6100396,12.9511872 L32.6100396,22.3283037 L32.588,22.328 L32.5884347,32.1638115 C32.5884347,32.9155462 31.9838332,33.5250333 31.2381242,33.5250333 L28.352,33.525 L28.3521733,39.5773656 C28.3521733,40.9154466 27.2759759,42 25.9486207,42 C24.6212656,42 23.5454058,40.9154466 23.5454058,39.5773656 L23.545,33.525 L19.075,33.525 L19.0758783,39.5773656 C19.0758783,40.9154466 18.0000184,42 16.6726633,42 C15.3456457,42 14.2694483,40.9154466 14.2694483,39.5773656 L14.269,33.525 L11.3834974,33.5250333 C10.6377885,33.5250333 10.0325118,32.9155462 10.0325118,32.1638115 L10.032,22.328 L10.011582,22.3283037 L10.011582,12.9511872 L32.6100396,12.9511872 Z M36.2180691,12.1759714 C37.5454242,12.1759714 38.6216216,13.2608652 38.6216216,14.5989462 L38.6216216,25.4863382 C38.6216216,26.8244191 37.5454242,27.9089726 36.2180691,27.9089726 C34.8907139,27.9089726 33.8148541,26.8244191 33.8148541,25.4863382 L33.8148541,14.5989462 C33.8148541,13.2608652 34.8907139,12.1759714 36.2180691,12.1759714 Z M6.40321497,12.1759714 C7.73090769,12.1759714 8.80676752,13.2608652 8.80676752,14.5989462 L8.80676752,25.4863382 C8.80676752,26.8244191 7.73090769,27.9089726 6.40321497,27.9089726 C5.07619741,27.9089726 4,26.8244191 4,25.4863382 L4,14.5989462 C4,13.2608652 5.07619741,12.1759714 6.40321497,12.1759714 Z M28.564172,0.0736890113 C28.6755726,0.153320485 28.7332984,0.263239142 28.6931267,0.320410456 L26.7623024,3.06725136 C32.2939269,5.5686586 32.5165306,11.6097032 32.5165306,11.6097032 L10.105091,11.6097032 L10.1056273,11.5943033 C10.1189487,11.2562454 10.4257821,5.44196404 15.8349127,3.03391272 L13.9278198,0.320410456 C13.8879856,0.263239142 13.9457114,0.153320485 14.057112,0.0736890113 C14.1451523,0.0105283214 14.2414024,-0.0140825681 14.2969488,0.00787121653 L14.3302123,0.0331926638 L16.3016851,2.83972679 C17.6547637,2.31495277 19.3030735,1.99623031 21.3109796,2.00245038 C23.3071129,2.00866349 24.9480349,2.3376006 26.296884,2.8703354 L28.2907342,0.0331926638 C28.3309059,-0.0239786503 28.4537842,-0.00526185106 28.564172,0.0736890113 Z M16.2027027,5.10810811 C15.4190305,5.10810811 14.7837838,5.74335484 14.7837838,6.52702703 C14.7837838,7.31069921 15.4190305,7.94594595 16.2027027,7.94594595 C16.9860198,7.94594595 17.6216216,7.31069921 17.6216216,6.52702703 C17.6216216,5.74335484 16.9860198,5.10810811 16.2027027,5.10810811 Z M26.4189189,5.10810811 C25.6352467,5.10810811 25,5.74335484 25,6.52702703 C25,7.31069921 25.6352467,7.94594595 26.4189189,7.94594595 C27.2018809,7.94594595 27.8378378,7.31069921 27.8378378,6.52702703 C27.8378378,5.74335484 27.2018809,5.10810811 26.4189189,5.10810811 Z"></path>
</svg>