<svg xmlns:xlink="http://www.w3.org/1999/xlink" xmlns="http://www.w3.org/2000/svg" width="24" height="24" viewBox="0 0 24 24" class="icon icon icon--mini">
  <path d="M12.6128994,6.20970461 L12.7071068,6.29289322 L17.7071068,11.2928932 C18.0976311,11.6834175 18.0976311,12.3165825 17.7071068,12.7071068 C17.3466228,13.0675907 16.7793918,13.0953203 16.3871006,12.7902954 L16.2928932,12.7071068 L13,9.414 L13,23 C13,23.5522847 12.5522847,24 12,24 C11.4871642,24 11.0644928,23.6139598 11.0067277,23.1166211 L11,23 L11,9.414 L7.70710678,12.7071068 C7.34662282,13.0675907 6.77939176,13.0953203 6.38710056,12.7902954 L6.29289322,12.7071068 C5.93240926,12.3466228 5.90467972,11.7793918 6.20970461,11.3871006 L6.29289322,11.2928932 L11.2928932,6.29289322 C11.6533772,5.93240926 12.2206082,5.90467972 12.6128994,6.20970461 Z M18.363961,18.363961 C18.9497475,17.7781746 19.8994949,17.7781746 20.4852814,18.363961 C21.0710678,18.9497475 21.0710678,19.8994949 20.4852814,20.4852814 C19.8994949,21.0710678 18.9497475,21.0710678 18.363961,20.4852814 C17.7781746,19.8994949 17.7781746,18.9497475 18.363961,18.363961 Z M3.51471863,18.363961 C4.10050506,17.7781746 5.05025253,17.7781746 5.63603897,18.363961 C6.22182541,18.9497475 6.22182541,19.8994949 5.63603897,20.4852814 C5.05025253,21.0710678 4.10050506,21.0710678 3.51471863,20.4852814 C2.92893219,19.8994949 2.92893219,18.9497475 3.51471863,18.363961 Z M22.5,10.5 C23.3284271,10.5 24,11.1715729 24,12 C24,12.8284271 23.3284271,13.5 22.5,13.5 C21.6715729,13.5 21,12.8284271 21,12 C21,11.1715729 21.6715729,10.5 22.5,10.5 Z M1.5,10.5 C2.32842712,10.5 3,11.1715729 3,12 C3,12.8284271 2.32842712,13.5 1.5,13.5 C0.671572875,13.5 9.86786691e-17,12.8284271 -5.35009249e-17,12 C-2.05680519e-16,11.1715729 0.671572875,10.5 1.5,10.5 Z M18.363961,3.51471863 C18.9497475,2.92893219 19.8994949,2.92893219 20.4852814,3.51471863 C21.0710678,4.10050506 21.0710678,5.05025253 20.4852814,5.63603897 C19.8994949,6.22182541 18.9497475,6.22182541 18.363961,5.63603897 C17.7781746,5.05025253 17.7781746,4.10050506 18.363961,3.51471863 Z M3.51471863,3.51471863 C4.10050506,2.92893219 5.05025253,2.92893219 5.63603897,3.51471863 C6.22182541,4.10050506 6.22182541,5.05025253 5.63603897,5.63603897 C5.05025253,6.22182541 4.10050506,6.22182541 3.51471863,5.63603897 C2.92893219,5.05025253 2.92893219,4.10050506 3.51471863,3.51471863 Z M12,0 C12.8284271,0 13.5,0.671572875 13.5,1.5 C13.5,2.32842712 12.8284271,3 12,3 C11.1715729,3 10.5,2.32842712 10.5,1.5 C10.5,0.671572875 11.1715729,0 12,0 Z"></path>
</svg>