<svg xmlns:xlink="http://www.w3.org/1999/xlink" xmlns="http://www.w3.org/2000/svg" width="24" height="24" viewBox="0 0 24 24" class="icon fill-current max-sm:w-[12px] sm:w-[16px] lg:w-[20px]">
  <path d="M15 12C15 10.3431 13.6569 9 12 9C10.3431 9 9 10.3431 9 12C9 13.6569 10.3431 15 12 15C13.6569 15 15 13.6569 15 12Z" fill="#FFFFFF"></path><path d="M5.80151 2.85678C6.15177 3.28379 6.08957 3.91389 5.66256 4.26415C3.35979 6.1531 2 8.96421 2 12C2 15.0336 3.3578 17.8429 5.65771 19.7319C6.0845 20.0824 6.14631 20.7125 5.79578 21.1393C5.44524 21.5661 4.8151 21.6279 4.38832 21.2774C1.63067 19.0124 0 15.6386 0 12C0 8.35878 1.63306 4.98272 4.39413 2.71784C4.82114 2.36757 5.45124 2.42978 5.80151 2.85678ZM24.0001 12C24.0001 8.38574 22.3912 5.03207 19.6651 2.76665C19.2403 2.41368 18.6098 2.47188 18.2568 2.89664C17.9039 3.32141 17.962 3.9519 18.3868 4.30487C20.6605 6.19425 22.0001 8.98667 22.0001 12C22.0001 15.0211 20.6535 17.82 18.3698 19.7092C17.9443 20.0613 17.8847 20.6916 18.2367 21.1172C18.5888 21.5427 19.2191 21.6023 19.6447 21.2503C22.3829 18.985 24.0001 15.6236 24.0001 12Z" fill-opacity="0" fill="#FFFFFF"><animate attributeName="fill-opacity" repeatCount="indefinite" dur="1.5s" values="0;0;1;0" keyTimes="0;0.4;0.8;1" begin="1.5s" fill-opacity="0" fill="#FFFFFF"></animate></path><path d="M17.6652 6.35145C18.1391 6.82675 18.552 7.35987 18.8933 7.93797C19.614 9.15874 20 10.5523 20 12C20 13.4531 19.6111 14.8517 18.8853 16.0756C18.5592 16.6255 18.1681 17.1346 17.7212 17.5918C17.3352 17.9867 16.702 17.9939 16.3071 17.6079C15.9122 17.2218 15.905 16.5887 16.291 16.1937C16.6267 15.8504 16.9203 15.4681 17.1651 15.0554C17.709 14.1382 18 13.0916 18 12C18 10.9125 17.7112 9.8696 17.1711 8.95476C16.915 8.52096 16.6049 8.12063 16.2489 7.7636C15.8589 7.37251 15.8599 6.73934 16.251 6.34939C16.6421 5.95943 17.2752 5.96036 17.6652 6.35145ZM7.6971 6.38893C8.09175 6.77528 8.09849 7.4084 7.71214 7.80306C6.62101 8.91766 6 10.4086 6 12C6 13.5998 6.62761 15.0979 7.729 16.2141C8.11692 16.6072 8.1127 17.2404 7.71958 17.6283C7.32647 18.0162 6.69332 18.012 6.3054 17.6189C4.83833 16.1321 4 14.131 4 12C4 9.88016 4.82952 7.88867 6.28296 6.40397C6.66931 6.00931 7.30244 6.00258 7.6971 6.38893Z" fill-opacity="0.247057" fill="#FFFFFF"><animate attributeName="fill-opacity" repeatCount="indefinite" dur="1.5s" to="1" values="0;1;1;0" keyTimes="0;0.4;0.8;1" begin="0.0s" fill-opacity="0.697723" fill="#FFFFFF"></animate></path>
</svg>