<svg xmlns:xlink="http://www.w3.org/1999/xlink" xmlns="http://www.w3.org/2000/svg" width="24" height="24" viewBox="0 0 24 24" class="icon fill-current max-sm:w-[12px] sm:w-[16px] lg:w-[20px]">
  <path d="M21,13 C22.5976809,13 23.9036609,14.24892 23.9949073,15.8237272 L24,16 L24,21 C24,22.5976809 22.75108,23.9036609 21.1762728,23.9949073 L21,24 L3,24 C1.40231912,24 0.0963391206,22.75108 0.00509269341,21.1762728 L0,21 L0,16 C0,14.4023191 1.24891996,13.0963391 2.82372721,13.0050927 L3,13 L21,13 Z M21,15 L3,15 C2.48716416,15 2.06449284,15.3860402 2.00672773,15.8833789 L2,16 L2,21 C2,21.5128358 2.38604019,21.9355072 2.88337887,21.9932723 L3,22 L21,22 C21.5128358,22 21.9355072,21.6139598 21.9932723,21.1166211 L22,21 L22,16 C22,15.4477153 21.5522847,15 21,15 Z M4.48796373,16 C4.58429996,16 4.67848071,16.02847 4.7586373,16.0818223 L7.78265799,18.0946129 C8.00689132,18.2438628 8.06748367,18.5463401 7.91799478,18.7702149 C7.88225882,18.8237332 7.83626192,18.8696565 7.78265799,18.9053353 L4.7586373,20.9181259 C4.53440397,21.0673758 4.23144225,21.0068803 4.08195336,20.7830055 C4.02851564,20.702977 4,20.6089469 4,20.5127647 L4,16.4871836 C4,16.2181195 4.2184688,16 4.48796373,16 Z M19,17.5 C19.5522847,17.5 20,17.9477153 20,18.5 C20,19.0128358 19.6139598,19.4355072 19.1166211,19.4932723 L19,19.5 L10,19.5 C9.44771525,19.5 9,19.0522847 9,18.5 C9,17.9871642 9.38604019,17.5644928 9.88337887,17.5067277 L10,17.5 L19,17.5 Z M21,0 C22.5976809,0 23.9036609,1.24891996 23.9949073,2.82372721 L24,3 L24,8 C24,9.59768088 22.75108,10.9036609 21.1762728,10.9949073 L21,11 L3,11 C1.40231912,11 0.0963391206,9.75108004 0.00509269341,8.17627279 L0,8 L0,3 C0,1.40231912 1.24891996,0.0963391206 2.82372721,0.00509269341 L3,0 L21,0 Z M21,2 L3,2 C2.48716416,2 2.06449284,2.38604019 2.00672773,2.88337887 L2,3 L2,8 C2,8.51283584 2.38604019,8.93550716 2.88337887,8.99327227 L3,9 L21,9 C21.5128358,9 21.9355072,8.61395981 21.9932723,8.11662113 L22,8 L22,3 C22,2.44771525 21.5522847,2 21,2 Z M4.48796373,3 C4.58429996,3 4.67848071,3.02847005 4.7586373,3.08182234 L7.78265799,5.09461289 C8.00689132,5.24386277 8.06748367,5.54634011 7.91799478,5.77021493 C7.88225882,5.82373316 7.83626192,5.86965652 7.78265799,5.90533534 L4.7586373,7.91812589 C4.53440397,8.06737577 4.23144225,8.0068803 4.08195336,7.78300548 C4.02851564,7.70297705 4,7.60894687 4,7.51276467 L4,3.48718356 C4,3.21811951 4.2184688,3 4.48796373,3 Z M19,4.5 C19.5522847,4.5 20,4.94771525 20,5.5 C20,6.01283584 19.6139598,6.43550716 19.1166211,6.49327227 L19,6.5 L10,6.5 C9.44771525,6.5 9,6.05228475 9,5.5 C9,4.98716416 9.38604019,4.56449284 9.88337887,4.50672773 L10,4.5 L19,4.5 Z" fill="#FFFFFF"></path>
</svg>