<svg xmlns="http://www.w3.org/2000/svg" xmlns:xlink="http://www.w3.org/1999/xlink" width="42" height="42" viewBox="0 0 42 42" version="1.1" class="w-16 md:w-24">
  <path d="M30.5454545,0 C36.8618613,0 42,5.13813873 42,11.4545455 L42,11.4545455 L42,30.5454545 C42,36.8618613 36.8618613,42 30.5454545,42 L30.5454545,42 L11.4545455,42 C5.13813873,42 0,36.8618613 0,30.5454545 L0,30.5454545 L0,11.4545455 C0,5.13813873 5.13813873,0 11.4545455,0 L11.4545455,0 Z M30.515625,14.925959 C27.8719818,14.925959 26.1083092,16.3615057 26.1083092,18.5166908 C26.1083092,20.2952772 27.1075999,21.3542261 29.2963421,21.8650568 L29.2963421,21.8650568 L30.8586648,22.2416546 L31.0811378,22.2971756 C32.5241391,22.6753841 33.1667261,23.2178625 33.1667261,24.0985443 C33.1667261,25.1724079 32.055575,25.9517045 30.5454545,25.9517045 C28.9309306,25.9517045 27.8048648,25.2208807 27.6445317,24.0724432 L27.6445317,24.0724432 L25.7801842,24.0724432 L25.7976383,24.2732281 C26.0280667,26.3239218 27.8028837,27.6221591 30.4000353,27.6221591 C33.2711295,27.6221591 35.0646307,26.1716977 35.0646307,23.85245 C35.0646307,22.0328478 34.0429683,21.0261011 31.5596591,20.4481534 L31.5596591,20.4481534 L30.2285159,20.1200284 L30.0095311,20.0664054 C28.5916531,19.7028204 28.0099432,19.2137784 28.0099432,18.3899148 C28.0099432,17.3011364 29.0017751,16.5889557 30.4857955,16.5889557 C31.8989704,16.5889557 32.8684306,17.2824931 33.0474079,18.4011011 L33.0474079,18.4011011 L34.8744671,18.4011011 L34.8594233,18.2116841 C34.6535933,16.2731859 32.8960463,14.925959 30.515625,14.925959 Z M18.1699216,14.925959 C14.698509,14.925959 12.5172228,17.357067 12.5172228,21.2684659 C12.5172228,25.1686795 14.6574931,27.6184306 18.1699216,27.6184306 C21.6786226,27.6184306 23.8077057,25.1612216 23.8077057,21.2684659 C23.8077057,17.3682524 21.6599785,14.925959 18.1699216,14.925959 Z M9.12411245,18.1922943 L7.32688186,18.1922943 L7.32688186,27.3238636 L9.12411245,27.3238636 L9.12411245,18.1922943 Z M18.1699216,16.6784444 C20.4705251,16.6784444 21.8911579,18.4570317 21.8911579,21.2684659 C21.8911579,24.0612569 20.4705251,25.8659444 18.1699216,25.8659444 C15.8469455,25.8659444 14.4375,24.0612569 14.4375,21.2684659 C14.4375,18.4570317 15.8879614,16.6784444 18.1699216,16.6784444 Z M8.22176823,14.3815694 C7.55433191,14.3815694 7.05841595,14.8588421 7.05841595,15.488991 C7.05841595,16.1079545 7.55433191,16.5852273 8.22176823,16.5852273 C8.892933,16.5852273 9.39257836,16.1079545 9.39257836,15.488991 C9.39257836,14.8588421 8.892933,14.3815694 8.22176823,14.3815694 Z"></path>
</svg>