<svg xmlns="http://www.w3.org/2000/svg" xmlns:xlink="http://www.w3.org/1999/xlink" width="42" height="42" viewBox="0 0 42 42" version="1.1" class="w-16 md:w-24">
  <path d="M23.1161928,13.9338795 L23.1161928,13.587759 L22.0403855,13.6616386 C21.735759,13.6808675 21.5070361,13.7456386 21.3532048,13.8549398 C21.1993735,13.965253 21.1224578,14.1180723 21.1224578,14.3133976 C21.1224578,14.5036627 21.1983614,14.6554699 21.3511807,14.7678072 C21.502988,14.8811566 21.7074217,14.9368193 21.9624578,14.9368193 C22.1253976,14.9368193 22.2782169,14.9115181 22.4188916,14.8619277 C22.5595663,14.8123373 22.6830361,14.742506 22.7862651,14.6534458 C22.889494,14.5653976 22.9704578,14.4601446 23.0281446,14.3376867 C23.0868434,14.2152289 23.1161928,14.0806265 23.1161928,13.9338795 Z M21,0 C9.28149398,0 0,9.28149398 0,21 C0,32.7195181 9.28149398,42 21,42 C32.718506,42 42,32.7195181 42,21 C42,9.28149398 32.7195181,0 21,0 Z M25.0765301,12.4471807 C25.1757108,12.1688675 25.3153735,11.9300241 25.4965301,11.7316627 C25.6776867,11.5333012 25.8952771,11.3804819 26.1503133,11.2732048 C26.4053494,11.1659277 26.6897349,11.1122892 27.0024578,11.1122892 C27.2848193,11.1122892 27.5398554,11.1547952 27.7665542,11.2387952 C27.9942651,11.3227952 28.1885783,11.4361446 28.3515181,11.5788434 C28.5144578,11.7215422 28.644,11.8875181 28.7391325,12.0777831 C28.8342651,12.2680482 28.8909398,12.4694458 28.9101687,12.6809639 L28.0671325,12.6809639 C28.0458795,12.5645783 28.0074217,12.4552771 27.9527711,12.3550843 C27.8981205,12.2548916 27.8262651,12.1678554 27.7372048,12.0939759 C27.6471325,12.0200964 27.5418795,11.9624096 27.4214458,11.9209157 C27.3,11.8784096 27.1643855,11.8581687 27.0115663,11.8581687 C26.8324337,11.8581687 26.669494,11.8946024 26.5247711,11.9664578 C26.3790361,12.0383133 26.2545542,12.1405301 26.1513253,12.2720964 C26.0480964,12.4036627 25.9681446,12.5645783 25.9114699,12.7528193 C25.8537831,12.9420723 25.8254458,13.1515663 25.8254458,13.3823133 C25.8254458,13.6211566 25.8537831,13.8357108 25.9114699,14.0239518 C25.9681446,14.2132048 26.0491084,14.3720964 26.1543614,14.5026506 C26.2586024,14.6332048 26.3851084,14.7333976 26.5318554,14.8022169 C26.6786024,14.8710361 26.8405301,14.9064578 27.0166265,14.9064578 C27.3050602,14.9064578 27.5398554,14.8386506 27.7220241,14.7030361 C27.9041928,14.5674217 28.0215904,14.3690602 28.076241,14.1079518 L28.9202892,14.1079518 C28.896,14.3386988 28.832241,14.5492048 28.729012,14.7394699 C28.6257831,14.9297349 28.4921928,15.0916627 28.328241,15.2262651 C28.1632771,15.3608675 27.9699759,15.4651084 27.7473253,15.5379759 C27.5246747,15.6108434 27.279759,15.6482892 27.0135904,15.6482892 C26.6978313,15.6482892 26.4134458,15.5956627 26.1573976,15.4914217 C25.9023614,15.3871807 25.682747,15.2363855 25.5005783,15.0410602 C25.3184096,14.8457349 25.1777349,14.6079036 25.0785542,14.3275663 C24.9793735,14.0472289 24.9297831,13.7324819 24.9297831,13.3813012 C24.927759,13.0382169 24.9773494,12.726506 25.0765301,12.4471807 L25.0765301,12.4471807 Z M13.0807229,11.1699759 L13.9247711,11.1699759 L13.9247711,11.9199036 L13.9409639,11.9199036 C13.9925783,11.7954217 14.0603855,11.6830843 14.1433735,11.5859277 C14.2263614,11.487759 14.321494,11.4047711 14.4307952,11.3349398 C14.5390843,11.2651084 14.6595181,11.2124819 14.7890602,11.1760482 C14.9196145,11.1396145 15.057253,11.1213976 15.2009639,11.1213976 C15.5106506,11.1213976 15.7727711,11.1952771 15.9853012,11.3430361 C16.1988434,11.4907952 16.3506506,11.7033253 16.4397108,11.9806265 L16.4609639,11.9806265 C16.5176386,11.8470361 16.5925301,11.7276145 16.6846265,11.6223614 C16.7767229,11.5171084 16.882988,11.4260241 17.0024096,11.3511325 C17.1218313,11.276241 17.2533976,11.2195663 17.3960964,11.1800964 C17.5387952,11.1406265 17.6885783,11.1213976 17.8464578,11.1213976 C18.0640482,11.1213976 18.2613976,11.1558072 18.4395181,11.2256386 C18.6176386,11.2954699 18.7694458,11.3926265 18.8959518,11.5191325 C19.0224578,11.6456386 19.1196145,11.7994699 19.1874217,11.9796145 C19.2552289,12.159759 19.2896386,12.3601446 19.2896386,12.5807711 L19.2896386,15.5976867 L18.4091566,15.5976867 L18.4091566,12.7922892 C18.4091566,12.5018313 18.3342651,12.2761446 18.1844819,12.117253 C18.0357108,11.9583614 17.8221687,11.8784096 17.5448675,11.8784096 C17.409253,11.8784096 17.2847711,11.9026988 17.1714217,11.9502651 C17.0590843,11.9978313 16.9609157,12.0646265 16.8799518,12.1506506 C16.7979759,12.2356627 16.7342169,12.3388916 16.6886747,12.4583133 C16.6421205,12.5777349 16.6188434,12.7082892 16.6188434,12.8499759 L16.6188434,15.5976867 L15.750506,15.5976867 L15.750506,12.7194217 C15.750506,12.5919036 15.7302651,12.4765301 15.6907952,12.3733012 C15.6513253,12.2700723 15.5956627,12.1820241 15.5217831,12.1081446 C15.4489157,12.0342651 15.3588434,11.9786024 15.2546024,11.9391325 C15.1493494,11.8996627 15.0319518,11.8794217 14.9013976,11.8794217 C14.7657831,11.8794217 14.6402892,11.9047229 14.5239036,11.9553253 C14.4085301,12.0059277 14.3093494,12.075759 14.2263614,12.1648193 C14.1433735,12.2548916 14.0786024,12.3601446 14.0330602,12.4826024 C13.9885301,12.6040482 13.9156627,12.7376386 13.9156627,12.8813494 L13.9156627,15.5966747 L13.0807229,15.5966747 L13.0807229,11.1699759 L13.0807229,11.1699759 Z M14.9965301,32.361253 C11.1254458,32.361253 8.69754217,29.6712289 8.69754217,25.3781205 C8.69754217,21.085012 11.1254458,18.3858795 14.9965301,18.3858795 C18.8676145,18.3858795 21.2864096,21.085012 21.2864096,25.3781205 C21.2864096,29.6702169 18.8676145,32.361253 14.9965301,32.361253 Z M22.1638554,15.5865542 C22.0211566,15.622988 21.8754217,15.6412048 21.7256386,15.6412048 C21.505012,15.6412048 21.3036145,15.6098313 21.1204337,15.5470843 C20.936241,15.4843373 20.7793735,15.3962892 20.6478072,15.2819277 C20.516241,15.1675663 20.413012,15.0299277 20.3401446,14.868 C20.2662651,14.7060723 20.2298313,14.5259277 20.2298313,14.3275663 C20.2298313,13.9389398 20.3745542,13.6353253 20.664,13.4167229 C20.9534458,13.1981205 21.3724337,13.0706024 21.9219759,13.0351807 L23.1161928,12.9663614 L23.1161928,12.6242892 C23.1161928,12.369253 23.0352289,12.1739277 22.8733012,12.0413494 C22.7113735,11.9087711 22.4826506,11.8419759 22.1861205,11.8419759 C22.0666988,11.8419759 21.9543614,11.8571566 21.8511325,11.886506 C21.7479036,11.9168675 21.6568193,11.9593735 21.5778795,12.0150361 C21.4989398,12.0706988 21.4331566,12.137494 21.3825542,12.2154217 C21.3309398,12.2923373 21.2955181,12.3793735 21.2762892,12.474506 L20.4484337,12.474506 C20.453494,12.2791807 20.5020723,12.0980241 20.5931566,11.9320482 C20.684241,11.7660723 20.8077108,11.6223614 20.9645783,11.4999036 C21.1214458,11.3774458 21.3046265,11.2823133 21.5171566,11.214506 C21.7296867,11.1466988 21.9604337,11.1122892 22.2104096,11.1122892 C22.4796145,11.1122892 22.7235181,11.1456867 22.9421205,11.214506 C23.1607229,11.2833253 23.3479518,11.3794699 23.5027952,11.5059759 C23.6576386,11.6324819 23.7770602,11.7842892 23.8610602,11.9624096 C23.9450602,12.1405301 23.9875663,12.3399036 23.9875663,12.5595181 L23.9875663,15.5966747 L23.1445301,15.5966747 L23.1445301,14.8588916 L23.1232771,14.8588916 C23.0605301,14.9783133 22.9815904,15.0866024 22.8854458,15.182747 C22.7882892,15.2788916 22.68,15.3618795 22.5595663,15.4296867 C22.4381205,15.497494 22.3065542,15.5501205 22.1638554,15.5865542 L22.1638554,15.5865542 Z M27.7331566,32.361253 C24.781012,32.361253 22.7741205,30.8148434 22.6344578,28.3869398 L24.5563373,28.3869398 C24.7061205,29.7744578 26.0470843,30.6933976 27.8839518,30.6933976 C29.6459277,30.6933976 30.912,29.7744578 30.912,28.518506 C30.912,27.4315663 30.1428434,26.774747 28.3626506,26.3253976 L26.628,25.8942651 C24.1343133,25.2759036 23.0008193,24.1413976 23.0008193,22.2761928 C23.0008193,19.9798554 25.0066988,18.3858795 27.8657349,18.3858795 C30.658988,18.3858795 32.6081928,19.9889639 32.6830843,22.2944096 L30.7804337,22.2944096 C30.6488675,20.9068916 29.5153735,20.0537349 27.8272771,20.0537349 C26.1493012,20.0537349 24.9874699,20.916 24.9874699,22.1628434 C24.9874699,23.1465542 25.7181687,23.7284819 27.4993735,24.1778313 L28.9617831,24.5431807 C31.7459277,25.2182169 32.8895422,26.3152771 32.8895422,28.2837108 C32.8885301,30.7956145 30.9018795,32.361253 27.7331566,32.361253 L27.7331566,32.361253 Z M14.9965301,20.1093976 C12.3439518,20.1093976 10.6852048,22.1436145 10.6852048,25.3771084 C10.6852048,28.601494 12.3439518,30.6357108 14.9965301,30.6357108 C17.64,30.6357108 19.3078559,28.601494 19.3078559,25.3771084 C19.3088675,22.1436145 17.64,20.1093976 14.9965301,20.1093976 L14.9965301,20.1093976 Z"></path>
</svg>