<svg xmlns="http://www.w3.org/2000/svg" xmlns:xlink="http://www.w3.org/1999/xlink" viewBox="0 0 100 138" version="1.1" class="m-8 mx-auto block w-16 fill-mixlr-red" width="100"  height="138" >
  <title>Mixlr</title>
  <path d="M56.2596,49.9998237 C56.2596,53.4571237 53.457,56.2597237 49.9996,56.2597237 C46.5421,56.2597237 43.7395,53.4571237 43.7395,49.9998237 C43.7395,46.5425237 46.5421,43.7397237 49.9996,43.7397237 C53.457,43.7397237 56.2596,46.5425237 56.2596,49.9998237 Z" fill="#ED1C24" fill-rule="nonzero" opacity="0.4"></path>
  <path d="M56.2596,6.26014371 C56.2596,9.71745371 53.457,12.5203237 49.9996,12.5203237 C46.5421,12.5203237 43.7395,9.71745371 43.7395,6.26014371 C43.7395,2.80283371 46.5421,2.22044605e-14 49.9996,2.22044605e-14 C53.457,2.22044605e-14 56.2596,2.80283371 56.2596,6.26014371 Z" fill="#ED1C24" fill-rule="nonzero" opacity="0.4"></path>
  <path d="M56.2596,28.1299237 C56.2596,31.5872237 53.457,34.3900237 49.9996,34.3900237 C46.5421,34.3900237 43.7395,31.5872237 43.7395,28.1299237 C43.7395,24.6725237 46.5421,21.8697237 49.9996,21.8697237 C53.457,21.8697237 56.2596,24.6725237 56.2596,28.1299237 Z" fill="#ED1C24" fill-rule="nonzero"></path>
  <path d="M33.551,8.99002371 C35.2797,11.9843237 34.254,15.8128237 31.2597,17.5417237 C28.2655,19.2701237 24.4367,18.2444237 22.7081,15.2501237 C20.9794,12.2561237 22.0055,8.42737371 24.9994,6.69871371 C27.9937,4.97005371 31.8224,5.99596371 33.551,8.99002371 Z" fill="#ED1C24" fill-rule="nonzero"></path>
  <path d="M15.2498,22.7085237 C18.244,24.4371237 19.2697,28.2659237 17.5411,31.2601237 C15.8124,34.2542237 11.9837,35.2801237 8.98963,33.5514237 C5.99536,31.8228237 4.96945,27.9941237 6.69811,25.0000237 C8.42697,22.0057237 12.2555,20.9798237 15.2498,22.7085237 Z" fill="#ED1C24" fill-rule="nonzero"></path>
  <path d="M6.25994,43.7397237 C9.71725,43.7397237 12.5201,46.5425237 12.5201,49.9998237 C12.5201,53.4571237 9.71725,56.2597237 6.25994,56.2597237 C2.80262,56.2597237 -2.13162821e-14,53.4571237 -2.13162821e-14,49.9998237 C-2.13162821e-14,46.5425237 2.80262,43.7397237 6.25994,43.7397237 Z" fill="#ED1C24" fill-rule="nonzero"></path>
  <path d="M8.98947,66.4483237 C11.9837,64.7197237 15.8123,65.7453237 17.5411,68.7396237 C19.2698,71.7339237 18.2439,75.5624237 15.2496,77.2913237 C12.2556,79.0199237 8.42682,77.9938237 6.69816,74.9998237 C4.96951,72.0057237 5.99521,68.1770237 8.98947,66.4483237 Z" fill="#ED1C24" fill-rule="nonzero"></path>
  <path d="M22.709,84.7493237 C24.4376,81.7550237 28.2664,80.7293237 31.2606,82.4580237 C34.2547,84.1866237 35.2806,88.0154237 33.5519,91.0094237 C31.8233,94.0035237 27.9946,95.0296237 25.0003,93.3009237 C22.0062,91.5721237 20.9803,87.7435237 22.709,84.7493237 Z" fill="#ED1C24" fill-rule="nonzero"></path>
  <path d="M43.7395,93.7393237 C43.7395,90.2821237 46.5421,87.4793237 49.9994,87.4793237 C53.457,87.4793237 56.2596,90.2821237 56.2596,93.7393237 C56.2596,97.1966237 53.457,99.9994237 49.9994,99.9994237 C46.5421,99.9994237 43.7395,97.1966237 43.7395,93.7393237 Z" fill="#ED1C24" fill-rule="nonzero"></path>
  <path d="M66.4474,91.0095237 C64.7188,88.0152237 65.7445,84.1867237 68.7387,82.4578237 C71.733,80.7291237 75.5617,81.7550237 77.2904,84.7493237 C79.0191,87.7434237 77.9929,91.5721237 74.9991,93.3008237 C72.0048,95.0294237 68.1761,94.0035237 66.4474,91.0095237 Z" fill="#ED1C24" fill-rule="nonzero"></path>
  <path d="M84.7487,77.2912237 C81.7545,75.5626237 80.7288,71.7338237 82.4574,68.7396237 C84.1861,65.7455237 88.0148,64.7196237 91.0089,66.4483237 C94.0032,68.1771237 95.0291,72.0057237 93.3004,74.9997237 C91.5715,77.9940237 87.743,79.0199237 84.7487,77.2912237 Z" fill="#ED1C24" fill-rule="nonzero"></path>
  <path d="M93.7401,56.2597237 C90.2828,56.2597237 87.48,53.4571237 87.48,49.9998237 C87.48,46.5423237 90.2828,43.7397237 93.7401,43.7397237 C97.1974,43.7397237 100,46.5423237 100,49.9998237 C100,53.4571237 97.1974,56.2597237 93.7401,56.2597237 Z" fill="#ED1C24" fill-rule="nonzero" opacity="0.4"></path>
  <path d="M91.009,33.5513237 C88.0148,35.2800237 84.1862,34.2541237 82.4574,31.2600237 C80.7287,28.2657237 81.7546,24.4370237 84.7489,22.7084237 C87.743,20.9797237 91.5717,22.0056237 93.3003,24.9999237 C95.029,27.9939237 94.0033,31.8227237 91.009,33.5513237 Z" fill="#ED1C24" fill-rule="nonzero" opacity="0.4"></path>
  <path d="M77.2904,15.2501237 C75.5617,18.2444237 71.733,19.2701237 68.7387,17.5417237 C65.7446,15.8128237 64.7187,11.9843237 66.4474,8.99002371 C68.176,5.99596371 72.0048,4.97005371 74.999,6.69871371 C77.9931,8.42737371 79.019,12.2561237 77.2904,15.2501237 Z" fill="#ED1C24" fill-rule="nonzero" opacity="0.4"></path>
  <path d="M34.1902,33.6435237 C37.1843,35.3722237 38.2102,39.2007237 36.4815,42.1950237 C34.7528,45.1892237 30.9241,46.2149237 27.9301,44.4863237 C24.9358,42.7576237 23.9099,38.9291237 25.6385,35.9348237 C27.3674,32.9405237 31.1959,31.9148237 34.1902,33.6435237 Z" fill="#ED1C24" fill-rule="nonzero"></path>
  <path d="M27.9299,55.5132237 C30.9242,53.7846237 34.7527,54.8103237 36.4816,57.8045237 C38.2102,60.7988237 37.1841,64.6275237 34.19,66.3562237 C31.196,68.0848237 27.3672,67.0589237 25.6386,64.0649237 C23.9099,61.0706237 24.9356,57.2419237 27.9299,55.5132237 Z" fill="#ED1C24" fill-rule="nonzero"></path>
  <path d="M43.7395,71.8696237 C43.7395,68.4123237 46.5421,65.6097237 49.9994,65.6097237 C53.457,65.6097237 56.2596,68.4123237 56.2596,71.8696237 C56.2596,75.3270237 53.457,78.1298237 49.9994,78.1298237 C46.5421,78.1298237 43.7395,75.3270237 43.7395,71.8696237 Z" fill="#ED1C24" fill-rule="nonzero"></path>
  <path d="M65.809,66.3560237 C62.8149,64.6274237 61.789,60.7986237 63.5177,57.8044237 C65.2464,54.8103237 69.0751,53.7844237 72.0692,55.5131237 C75.0634,57.2417237 76.0893,61.0705237 74.3607,64.0647237 C72.6318,67.0590237 68.8033,68.0847237 65.809,66.3560237 Z" fill="#ED1C24" fill-rule="nonzero"></path>
  <path d="M72.0693,44.4863237 C69.075,46.2149237 65.2465,45.1892237 63.5176,42.1950237 C61.789,39.2007237 62.8151,35.3722237 65.8092,33.6435237 C68.8032,31.9148237 72.632,32.9405237 74.3606,35.9348237 C76.0893,38.9291237 75.0636,42.7576237 72.0693,44.4863237 Z" fill="#ED1C24" fill-rule="nonzero"></path>
  <path d="M78.6392513,124.825463 C79.0653476,124.825463 79.5572193,124.859529 79.8915508,124.961729 L79.8915508,128.585696 C79.3736898,128.429029 78.8227807,128.313229 78.2718717,128.313229 C75.765521,128.313229 75.1520282,129.622713 75.0319891,131.633561 L75.0149228,132.018666 L75.0149228,132.018666 L75.0073718,132.419318 L75.0073718,132.419318 L75.0065241,137.999863 L71.1970053,137.999863 L71.1970053,125.145629 L75.0065241,125.145629 L75.0065241,127.216496 L75.0722995,127.216496 C75.8917647,125.649729 76.9605348,124.825463 78.6392513,124.825463 Z M45.237861,125.145629 L45.237861,137.999863 L41.4544599,137.999863 L41.4544599,125.145629 L45.237861,125.145629 Z M52.8899465,125.145629 L55.0865241,128.640196 L57.197754,125.145629 L61.4336898,125.145629 L57.4403209,131.119763 L62.2008556,137.999863 L57.6828877,137.999863 L54.9684492,133.715129 L52.0964706,137.999863 L47.6114866,137.999863 L52.5225668,131.119763 L48.4048663,125.145629 L52.8899465,125.145629 Z M37.7300963,119.096593 L37.7300963,137.999863 L33.5205027,137.999863 L33.5205027,129.042096 L28.8191658,133.469896 L24.2095936,129.035296 L24.2095936,137.999863 L20,137.999863 L20,119.123839 L28.9109626,127.788696 L37.7300963,119.096593 Z M68.4363636,117.999863 L68.4363636,137.993063 L64.6268449,137.993063 L64.6268449,117.999863 L68.4363636,117.999863 Z M43.3494332,118.796869 C44.575615,118.796869 45.5788342,119.825479 45.5788342,121.092509 C45.5788342,122.359529 44.575615,123.401763 43.3494332,123.401763 C42.129861,123.401763 41.1265462,122.359529 41.1265462,121.092509 C41.1200642,119.825479 42.1232834,118.796869 43.3494332,118.796869 Z" fill="#ED1C24" fill-rule="nonzero"></path>
</svg>