<svg xmlns="http://www.w3.org/2000/svg" xmlns:xlink="http://www.w3.org/1999/xlink" width="42" height="42" viewBox="0 0 42 42" version="1.1" class="w-16 md:w-24">
  <path d="M42,22.1351351 L42,42 C34.4836205,40.7775987 26.8137764,39.8607481 19.2972973,38.7911221 L19.2972973,22.1351351 L42,22.1351351 Z M17.027027,21.5675676 L17.027027,38.027027 C11.2500212,37.2650719 5.62501058,36.5030177 0,35.7409635 L0,21.5675676 C5.62501058,21.5675676 11.2500212,21.7199388 17.027027,21.5675676 Z M42,0 L42,19.7132563 C34.4836205,19.7132563 26.8137764,19.8648649 19.2972973,19.8648649 L19.2972973,3.33607891 C26.8137764,2.12301304 34.4836205,1.06145726 42,0 Z M17.027027,3.40540541 L17.027027,19.7124945 C11.2500212,19.7124945 5.62501058,19.8648649 0,19.8648649 L0,5.69145519 C5.62501058,4.77703528 11.2500212,4.01498568 17.027027,3.40540541 Z"></path>
</svg>