<svg xmlns:xlink="http://www.w3.org/1999/xlink" xmlns="http://www.w3.org/2000/svg" width="24" height="24" viewBox="0 0 24 24" class="icon block w-6 fill-current">
  <path d="M23,4 C22.042385,4.67547741 20.9821079,5.19210925 19.86,5.53 C18.6263595,4.11153779 16.63837,3.61411431 14.8820815,4.28445343 C13.125793,4.95479256 11.9748003,6.65030087 12,8.53 L12,9.53 C8.43066483,9.6225524 5.05202531,7.92197051 3,5 C3,5 -1,14 8,18 C5.94052756,19.3979663 3.48715691,20.0989294 1,20 C10,25 21,20 21,8.5 C20.9990791,8.22145364 20.9722975,7.9435944 20.92,7.67 C21.9406031,6.66349308 22.6608274,5.39271279 23,4 Z" fill="#ED1C24"></path>
</svg>